<svg width="214" height="218" viewBox="0 0 214 218" fill="none" xmlns="http://www.w3.org/2000/svg">
<path d="M90.4997 38.4996L90.4997 37.9996L89.991 37.9996L89.9998 38.5083L90.4997 38.4996ZM90.1443 217.351C90.3381 217.548 90.6547 217.55 90.8514 217.356L94.0568 214.198C94.2535 214.004 94.2558 213.687 94.062 213.491C93.8682 213.294 93.5516 213.292 93.3549 213.485L90.5057 216.293L87.6982 213.444C87.5044 213.247 87.1879 213.245 86.9911 213.438C86.7945 213.632 86.7921 213.949 86.9859 214.146L90.1443 217.351ZM164.499 37.9996L90.4997 37.9996L90.4997 38.9996L164.499 38.9996L164.499 37.9996ZM89.9998 38.5083C91.3725 117.972 90.5876 137.521 90.0005 216.996L91.0005 217.004C91.5875 137.536 92.3726 117.97 90.9996 38.491L89.9998 38.5083Z" fill="#9F9F9F"/>
</svg>
