<svg width="27" height="20" viewBox="0 0 27 20" fill="none" xmlns="http://www.w3.org/2000/svg">
<path d="M25.3125 0H1.6875C1.23995 0 0.810725 0.175595 0.494257 0.488155C0.17779 0.800716 0 1.22464 0 1.66667V18.3333C0 18.7754 0.17779 19.1993 0.494257 19.5118C0.810725 19.8244 1.23995 20 1.6875 20H25.3125C25.7601 20 26.1893 19.8244 26.5057 19.5118C26.8222 19.1993 27 18.7754 27 18.3333V1.66667C27 1.22464 26.8222 0.800716 26.5057 0.488155C26.1893 0.175595 25.7601 0 25.3125 0ZM24.0131 18.3333H3.08812L8.99438 12.3L7.77938 11.1417L1.6875 17.3667V2.93333L12.1753 13.2417C12.4915 13.5521 12.9192 13.7263 13.365 13.7263C13.8108 13.7263 14.2385 13.5521 14.5547 13.2417L25.3125 2.675V17.2583L19.1025 11.125L17.9128 12.3L24.0131 18.3333ZM2.79281 1.66667H23.9456L13.365 12.0583L2.79281 1.66667Z" fill="#0000FE"/>
</svg>
