<svg width="204" height="219" viewBox="0 0 204 219" fill="none" xmlns="http://www.w3.org/2000/svg">
<path d="M115.499 35.9997L115.999 35.9997L115.999 35.4997L115.499 35.4997L115.499 35.9997ZM115.146 217.854C115.341 218.049 115.658 218.049 115.853 217.854L119.035 214.672C119.23 214.476 119.23 214.16 119.035 213.964C118.839 213.769 118.523 213.769 118.328 213.964L115.499 216.793L112.671 213.964C112.476 213.769 112.159 213.769 111.964 213.964C111.768 214.16 111.768 214.476 111.964 214.672L115.146 217.854ZM42.4993 36.4998L115.499 36.4997L115.499 35.4997L42.4993 35.4998L42.4993 36.4998ZM114.999 35.9997L114.999 217.5L115.999 217.5L115.999 35.9997L114.999 35.9997Z" fill="#9F9F9F"/>
</svg>
