<svg width="29" height="29" viewBox="0 0 29 29" fill="none" xmlns="http://www.w3.org/2000/svg">
<path d="M19.8835 0H9.02415C4.02734 0 0 4.02789 0 9.00167V19.8117C0 24.7858 4.02734 28.8758 9.02415 28.8758H19.8835C24.8804 28.8758 29 24.7858 29 19.8117V9.00167C29 4.02789 24.8804 0 19.8835 0ZM26.2677 19.8117C26.2677 23.2885 23.3762 26.1435 19.8835 26.1435H9.02415C5.53118 26.1435 2.67024 23.2885 2.67024 19.8117V9.00167C2.67024 5.52509 5.53118 2.67024 9.02415 2.67024H19.8835C23.3762 2.67024 26.2677 5.52509 26.2677 9.00167V19.8117Z" fill="url(#paint0_linear_210:1171)"/>
<path d="M14.4534 7.19995C10.4553 7.19995 7.21387 10.4266 7.21387 14.4068C7.21387 18.3864 10.4553 21.613 14.4534 21.613C18.4515 21.613 21.6928 18.3864 21.6928 14.4068C21.6928 10.4266 18.4515 7.19995 14.4534 7.19995ZM14.4534 18.9107C11.9592 18.9107 9.92888 16.8894 9.92888 14.4068C9.92888 11.9219 11.9592 9.90254 14.4534 9.90254C16.9474 9.90254 18.9779 11.9219 18.9779 14.4068C18.9779 16.8894 16.9474 18.9107 14.4534 18.9107Z" fill="url(#paint1_linear_210:1171)"/>
<path d="M22.2364 5.69922C21.7035 5.69922 21.2715 6.12919 21.2715 6.65945C21.2715 7.18977 21.7035 7.61993 22.2364 7.61993C22.7687 7.61993 23.2009 7.18977 23.2009 6.65945C23.2009 6.12919 22.7687 5.69922 22.2364 5.69922Z" fill="url(#paint2_linear_210:1171)"/>
<defs>
<linearGradient id="paint0_linear_210:1171" x1="2.66426" y1="26.2352" x2="26.2899" y2="2.60957" gradientUnits="userSpaceOnUse">
<stop stop-color="#FFC107"/>
<stop offset="0.2211" stop-color="#F98D1C"/>
<stop offset="0.5137" stop-color="#F1423B"/>
<stop offset="0.8329" stop-color="#B93088"/>
<stop offset="0.9944" stop-color="#9C27B0"/>
</linearGradient>
<linearGradient id="paint1_linear_210:1171" x1="9.34606" y1="19.514" x2="19.5608" y2="9.29923" gradientUnits="userSpaceOnUse">
<stop stop-color="#FFC107"/>
<stop offset="0.2211" stop-color="#F98D1C"/>
<stop offset="0.5137" stop-color="#F1423B"/>
<stop offset="0.8329" stop-color="#B93088"/>
<stop offset="0.9944" stop-color="#9C27B0"/>
</linearGradient>
<linearGradient id="paint2_linear_210:1171" x1="21.5557" y1="7.34012" x2="22.9168" y2="5.97899" gradientUnits="userSpaceOnUse">
<stop stop-color="#FFC107"/>
<stop offset="0.2211" stop-color="#F98D1C"/>
<stop offset="0.5137" stop-color="#F1423B"/>
<stop offset="0.8329" stop-color="#B93088"/>
<stop offset="0.9944" stop-color="#9C27B0"/>
</linearGradient>
</defs>
</svg>
