<svg width="22" height="22" viewBox="0 0 22 22" fill="none" xmlns="http://www.w3.org/2000/svg">
<path d="M4.47284 9.09514L1.74632 11.8217C0.628168 12.9398 0 14.4563 0 16.0376C0 17.6189 0.628168 19.1355 1.74632 20.2536C2.86446 21.3718 4.381 21.9999 5.9623 21.9999C7.5436 21.9999 9.06013 21.3718 10.1783 20.2536L13.811 16.6189C14.4853 15.9446 14.9879 15.1183 15.2768 14.2095C15.5656 13.3006 15.6323 12.3358 15.4711 11.3959C15.3099 10.456 14.9256 9.56844 14.3504 8.80779C13.7752 8.04715 13.026 7.43558 12.1655 7.02441L11.001 8.18895C10.8828 8.30739 10.78 8.44026 10.695 8.58442C11.3598 8.77553 11.9632 9.13684 12.4455 9.63261C12.9279 10.1284 13.2725 10.7415 13.4453 11.4113C13.6182 12.081 13.6132 12.7843 13.4309 13.4516C13.2486 14.1189 12.8953 14.727 12.406 15.2159L8.77527 18.8486C8.02949 19.5944 7.01799 20.0134 5.96329 20.0134C4.90859 20.0134 3.8971 19.5944 3.15131 18.8486C2.40553 18.1028 1.98655 17.0914 1.98655 16.0367C1.98655 14.982 2.40553 13.9705 3.15131 13.2247L4.72721 11.6508C4.50487 10.8176 4.41897 9.95383 4.47284 9.09316V9.09514Z" fill="#0000FE"/>
<path d="M8.19021 5.37903C7.51594 6.0534 7.01328 6.87967 6.72442 7.7885C6.43556 8.69733 6.36893 9.66219 6.53012 10.6021C6.69132 11.542 7.07563 12.4295 7.6508 13.1902C8.22597 13.9508 8.97522 14.5624 9.83566 14.9735L11.3758 13.4314C10.702 13.2507 10.0877 12.8958 9.59448 12.4024C9.1013 11.909 8.74667 11.2945 8.56622 10.6207C8.38577 9.94682 8.38586 9.23734 8.56648 8.56352C8.74711 7.88971 9.1019 7.2753 9.5952 6.78204L13.2259 3.14932C13.9717 2.40354 14.9832 1.98456 16.0379 1.98456C17.0926 1.98456 18.1041 2.40354 18.8499 3.14932C19.5957 3.89511 20.0147 4.90661 20.0147 5.9613C20.0147 7.016 19.5957 8.0275 18.8499 8.77328L17.274 10.3472C17.4966 11.1818 17.582 12.0463 17.5284 12.9048L20.2549 10.1783C21.373 9.06013 22.0012 7.5436 22.0012 5.9623C22.0012 4.381 21.373 2.86446 20.2549 1.74632C19.1367 0.628169 17.6202 0 16.0389 0C14.4576 0 12.9411 0.628169 11.8229 1.74632L8.19021 5.37903Z" fill="#0000FE"/>
</svg>
