<svg width="30" height="30" viewBox="0 0 30 30" fill="none" xmlns="http://www.w3.org/2000/svg">
<path d="M15 0C6.71566 0 0 6.71566 0 15C0 23.2843 6.71566 30 15 30C23.2843 30 30 23.2843 30 15C30 6.71566 23.2843 0 15 0Z" fill="#40B3E0"/>
<path d="M22.2991 8.62853L19.6198 22.1366C19.6198 22.1366 19.2452 23.0734 18.2147 22.6238L12.0321 17.8838L9.78402 16.7972L5.99957 15.5231C5.99957 15.5231 5.41879 15.3171 5.36254 14.8675C5.30629 14.4178 6.01832 14.1743 6.01832 14.1743L21.0624 8.27275C21.0624 8.27275 22.2989 7.72947 22.2989 8.62877" fill="white"/>
<path d="M11.5572 21.9848C11.5572 21.9848 11.3768 21.9679 11.1518 21.2559C10.9271 20.544 9.78418 16.797 9.78418 16.797L18.8707 11.0267C18.8707 11.0267 19.3953 10.7082 19.3766 11.0267C19.3766 11.0267 19.4702 11.0829 19.1891 11.3452C18.9082 11.6076 12.0512 17.7713 12.0512 17.7713" fill="#D2E5F1"/>
<path d="M14.4023 19.7009L11.957 21.9305C11.957 21.9305 11.7657 22.0756 11.5566 21.9847L12.0249 17.8433" fill="#B5CFE4"/>
</svg>
