<svg width="14" height="19" viewBox="0 0 14 19" fill="none" xmlns="http://www.w3.org/2000/svg">
<path d="M7 3C6.20888 3 5.43552 3.2346 4.77772 3.67412C4.11992 4.11365 3.60723 4.73836 3.30448 5.46927C3.00173 6.20017 2.92252 7.00444 3.07686 7.78036C3.2312 8.55628 3.61216 9.26902 4.17157 9.82843C4.73098 10.3878 5.44372 10.7688 6.21964 10.9231C6.99556 11.0775 7.79983 10.9983 8.53073 10.6955C9.26164 10.3928 9.88635 9.88008 10.3259 9.22228C10.7654 8.56448 11 7.79112 11 7C11 5.93913 10.5786 4.92172 9.82843 4.17157C9.07828 3.42143 8.06087 3 7 3ZM7 9.60384C6.48501 9.60384 5.98158 9.45113 5.55339 9.16501C5.12519 8.8789 4.79145 8.47223 4.59437 7.99644C4.39729 7.52066 4.34572 6.99711 4.44619 6.49201C4.54666 5.98692 4.79466 5.52296 5.15881 5.15881C5.52296 4.79465 5.98692 4.54666 6.49202 4.44619C6.99711 4.34572 7.52066 4.39729 7.99645 4.59437C8.47224 4.79144 8.8789 5.12518 9.16501 5.55338C9.45113 5.98158 9.60384 6.48501 9.60384 7C9.60199 7.68937 9.32684 8.34987 8.83873 8.83668C8.35062 9.32348 7.68937 9.59686 7 9.59686V9.60384Z" fill="#322C2C"/>
<path d="M6.87167 5.77454e-10C5.0547 0.00151759 3.31216 0.721984 2.02464 2.00404C0.737117 3.28609 0.00924602 5.02556 0 6.8425C0 9.56667 1.52833 11.8475 2.64833 13.51L2.8525 13.8133C3.96683 15.4284 5.16225 16.9859 6.43417 18.48L6.8775 18.9992L7.32083 18.48C8.59259 16.9858 9.788 15.4282 10.9025 13.8133L11.1067 13.5042C12.2208 11.8417 13.7492 9.56667 13.7492 6.8425C13.7399 5.02455 13.0112 3.2842 11.7225 2.00198C10.4337 0.719762 8.68964 -2.3541e-05 6.87167 5.77454e-10ZM10.1325 12.8333L9.9225 13.1425C8.91917 14.6475 7.58917 16.3333 6.87167 17.1675C6.18333 16.3333 4.82417 14.6475 3.82083 13.1425L3.61667 12.8333C2.58417 11.2933 1.16667 9.1875 1.16667 6.81917C1.16667 6.06998 1.31423 5.32812 1.60093 4.63596C1.88764 3.9438 2.30786 3.31488 2.83762 2.78512C3.36738 2.25536 3.99629 1.83514 4.68846 1.54843C5.38062 1.26173 6.12248 1.11417 6.87167 1.11417C7.62086 1.11417 8.36271 1.26173 9.05488 1.54843C9.74704 1.83514 10.376 2.25536 10.9057 2.78512C11.4355 3.31488 11.8557 3.9438 12.1424 4.63596C12.4291 5.32812 12.5767 6.06998 12.5767 6.81917C12.5767 9.21083 11.165 11.3167 10.1325 12.8333Z" fill="#322C2C"/>
</svg>
