<svg width="24" height="24" viewBox="0 0 24 24" fill="none" xmlns="http://www.w3.org/2000/svg">
<path d="M17.6127 15.5167C19.0651 13.5347 19.7157 11.0774 19.4342 8.63642C19.1526 6.19541 17.9598 3.95071 16.0943 2.3514C14.2289 0.752082 11.8283 -0.0838946 9.37295 0.0107151C6.91758 0.105325 4.58848 1.12354 2.8516 2.86166C1.11473 4.59978 0.0981746 6.92962 0.00532185 9.38505C-0.0875309 11.8405 0.750163 14.2404 2.35081 16.1048C3.95146 17.9691 6.19702 19.1603 8.63823 19.4401C11.0794 19.7199 13.5363 19.0676 15.5172 17.6137H15.5157C15.5607 17.6737 15.6087 17.7307 15.6627 17.7862L21.4377 23.5612C21.719 23.8427 22.1005 24.0009 22.4984 24.001C22.8963 24.0011 23.278 23.8432 23.5594 23.562C23.8409 23.2807 23.9991 22.8991 23.9993 22.5012C23.9994 22.1033 23.8415 21.7217 23.5602 21.4402L17.7852 15.6652C17.7316 15.6109 17.6739 15.5608 17.6127 15.5152V15.5167ZM17.9997 9.7507C17.9997 10.8341 17.7863 11.9069 17.3717 12.9078C16.9571 13.9088 16.3494 14.8182 15.5833 15.5843C14.8172 16.3504 13.9078 16.9581 12.9068 17.3727C11.9059 17.7873 10.8331 18.0007 9.7497 18.0007C8.66629 18.0007 7.5935 17.7873 6.59256 17.3727C5.59162 16.9581 4.68215 16.3504 3.91607 15.5843C3.14998 14.8182 2.54229 13.9088 2.12769 12.9078C1.71309 11.9069 1.4997 10.8341 1.4997 9.7507C1.4997 7.56266 2.36889 5.46424 3.91607 3.91707C5.46324 2.36989 7.56166 1.5007 9.7497 1.5007C11.9377 1.5007 14.0362 2.36989 15.5833 3.91707C17.1305 5.46424 17.9997 7.56266 17.9997 9.7507Z" fill="#050101"/>
</svg>
