<svg width="19" height="19" viewBox="0 0 19 19" fill="none" xmlns="http://www.w3.org/2000/svg">
<path d="M9.5 0C12.0196 0 14.4359 0.966886 16.2175 2.68795C17.9991 4.40902 19 6.74329 19 9.17725C19 11.6112 17.9991 13.9455 16.2175 15.6665C14.4359 17.3876 12.0196 18.3545 9.5 18.3545C6.98044 18.3545 4.56408 17.3876 2.78249 15.6665C1.00089 13.9455 0 11.6112 0 9.17725C0 6.74329 1.00089 4.40902 2.78249 2.68795C4.56408 0.966886 6.98044 0 9.5 0ZM9.5 1.14716C8.40839 1.14716 7.32746 1.35486 6.31894 1.75841C5.31043 2.16196 4.39406 2.75345 3.62217 3.49911C2.85029 4.24478 2.23799 5.13001 1.82025 6.10426C1.40251 7.07852 1.1875 8.12272 1.1875 9.17725C1.1875 10.2318 1.40251 11.276 1.82025 12.2502C2.23799 13.2245 2.85029 14.1097 3.62217 14.8554C4.39406 15.601 5.31043 16.1925 6.31894 16.5961C7.32746 16.9996 8.40839 17.2073 9.5 17.2073C11.7046 17.2073 13.8189 16.3613 15.3778 14.8554C16.9367 13.3494 17.8125 11.307 17.8125 9.17725C17.8125 7.04753 16.9367 5.00505 15.3778 3.49911C13.8189 1.99318 11.7046 1.14716 9.5 1.14716ZM8.90625 3.44147C9.04522 3.44142 9.1798 3.48847 9.28656 3.57441C9.39332 3.66035 9.46549 3.77975 9.4905 3.9118L9.5 4.01505V9.17725H12.4688C12.6171 9.17698 12.7602 9.23039 12.8699 9.32696C12.9795 9.42353 13.0478 9.55625 13.0612 9.699C13.0746 9.84174 13.0322 9.98417 12.9423 10.0982C12.8524 10.2123 12.7216 10.2897 12.5756 10.3152L12.4688 10.3244H8.90625C8.76728 10.3244 8.6327 10.2774 8.52594 10.1915C8.41918 10.1055 8.34701 9.98612 8.322 9.85407L8.3125 9.75082V4.01505C8.3125 3.86292 8.37506 3.71703 8.4864 3.60946C8.59775 3.5019 8.74878 3.44147 8.90625 3.44147Z" fill="#322C2C"/>
</svg>
