<svg width="22" height="22" viewBox="0 0 22 22" fill="none" xmlns="http://www.w3.org/2000/svg">
<path d="M11 0C4.92482 0 0 4.92482 0 11C0 17.0752 4.92482 22 11 22C17.0752 22 22 17.0752 22 11C22 4.92482 17.0752 0 11 0Z" fill="#40B3E0"/>
<path d="M16.3526 6.32769L14.3878 16.2336C14.3878 16.2336 14.1131 16.9206 13.3574 16.5909L8.82354 13.1149L7.17492 12.318L4.39965 11.3837C4.39965 11.3837 3.97375 11.2327 3.9325 10.9029C3.89125 10.5732 4.4134 10.3946 4.4134 10.3946L15.4457 6.06678C15.4457 6.06678 16.3525 5.66838 16.3525 6.32786" fill="white"/>
<path d="M8.47504 16.1222C8.47504 16.1222 8.3427 16.1098 8.1777 15.5876C8.01295 15.0656 7.1748 12.3178 7.1748 12.3178L13.8382 8.08623C13.8382 8.08623 14.223 7.85266 14.2092 8.08623C14.2092 8.08623 14.2779 8.12748 14.0717 8.31981C13.8657 8.51223 8.83727 13.0323 8.83727 13.0323" fill="#D2E5F1"/>
<path d="M10.5619 14.4475L8.76866 16.0825C8.76866 16.0825 8.62841 16.1889 8.4751 16.1222L8.8185 13.0852" fill="#B5CFE4"/>
</svg>
