<svg width="25" height="25" viewBox="0 0 25 25" fill="none" xmlns="http://www.w3.org/2000/svg">
<path d="M21.5625 24.2812H21.4084C3.60059 23.2572 1.07215 8.23156 0.718715 3.64594C0.690236 3.2894 0.732389 2.93075 0.842758 2.59053C0.953127 2.25031 1.12954 1.93521 1.3619 1.66329C1.59425 1.39137 1.87798 1.16797 2.19682 1.00589C2.51566 0.843804 2.86335 0.746229 3.21996 0.718751H8.2134C8.57641 0.718399 8.93115 0.827056 9.23169 1.03065C9.53223 1.23424 9.76472 1.52338 9.89903 1.86063L11.2765 5.25C11.4092 5.57946 11.4421 5.94063 11.3712 6.28865C11.3003 6.63666 11.1287 6.95617 10.8778 7.2075L8.94746 9.15594C9.24899 10.8694 10.0696 12.4489 11.2982 13.6808C12.5268 14.9127 14.1041 15.7374 15.8168 16.0434L17.7834 14.095C18.0385 13.8468 18.361 13.6793 18.7107 13.6132C19.0605 13.5471 19.4219 13.5855 19.75 13.7234L23.1665 15.0919C23.4987 15.2304 23.7821 15.4647 23.9806 15.7649C24.1791 16.0651 24.2838 16.4176 24.2812 16.7775V21.5625C24.2812 22.2836 23.9948 22.9751 23.4849 23.4849C22.975 23.9948 22.2835 24.2812 21.5625 24.2812ZM3.43746 2.53125C3.19711 2.53125 2.9666 2.62673 2.79665 2.79669C2.62669 2.96664 2.53121 3.19715 2.53121 3.4375V3.51C2.94809 8.875 5.62153 21.5625 21.5081 22.4688C21.6271 22.4761 21.7465 22.4599 21.8593 22.421C21.972 22.3822 22.076 22.3214 22.1653 22.2423C22.2545 22.1631 22.3273 22.0671 22.3793 21.9598C22.4314 21.8525 22.4618 21.736 22.4687 21.6169V16.7775L19.0522 15.4091L16.4512 17.9919L16.0162 17.9375C8.13184 16.9497 7.06246 9.06531 7.06246 8.98375L7.00809 8.54875L9.58184 5.94781L8.22246 2.53125H3.43746Z" fill="black" fill-opacity="0.93"/>
</svg>
