<svg width="22" height="24" viewBox="0 0 22 24" fill="none" xmlns="http://www.w3.org/2000/svg">
<path d="M21.1369 18.9205C20.585 17.6191 19.7842 16.4369 18.7789 15.4399C17.7768 14.44 16.5896 13.6428 15.283 13.0923C15.2712 13.0865 15.2595 13.0836 15.2478 13.0777C17.0704 11.7671 18.2553 9.6321 18.2553 7.22334C18.2553 3.23303 15.008 0 11 0C6.99205 0 3.74473 3.23303 3.74473 7.22334C3.74473 9.6321 4.92956 11.7671 6.75216 13.0807C6.74045 13.0865 6.72875 13.0894 6.71705 13.0952C5.40642 13.6457 4.23036 14.435 3.22106 15.4428C2.21676 16.4406 1.41603 17.6225 0.863099 18.9234C0.319897 20.197 0.026935 21.5624 7.31554e-05 22.9458C-0.000707679 22.9769 0.00476896 23.0078 0.0161805 23.0367C0.0275921 23.0657 0.0447076 23.0921 0.0665186 23.1143C0.0883295 23.1366 0.114395 23.1543 0.143178 23.1663C0.171961 23.1784 0.202881 23.1846 0.234114 23.1846H1.98942C2.11814 23.1846 2.22054 23.0827 2.22346 22.9574C2.28197 20.7089 3.18888 18.603 4.79206 17.0069C6.45083 15.3554 8.65374 14.4467 11 14.4467C13.3463 14.4467 15.5492 15.3554 17.2079 17.0069C18.8111 18.603 19.718 20.7089 19.7765 22.9574C19.7795 23.0856 19.8819 23.1846 20.0106 23.1846H21.7659C21.7971 23.1846 21.828 23.1784 21.8568 23.1663C21.8856 23.1543 21.9117 23.1366 21.9335 23.1143C21.9553 23.0921 21.9724 23.0657 21.9838 23.0367C21.9952 23.0078 22.0007 22.9769 21.9999 22.9458C21.9707 21.5535 21.681 20.1991 21.1369 18.9205ZM11 12.2331C9.65719 12.2331 8.39337 11.7117 7.44258 10.7651C6.49179 9.8185 5.96812 8.56024 5.96812 7.22334C5.96812 5.88644 6.49179 4.62818 7.44258 3.68157C8.39337 2.73497 9.65719 2.21361 11 2.21361C12.3428 2.21361 13.6066 2.73497 14.5574 3.68157C15.5082 4.62818 16.0319 5.88644 16.0319 7.22334C16.0319 8.56024 15.5082 9.8185 14.5574 10.7651C13.6066 11.7117 12.3428 12.2331 11 12.2331Z" fill="#050101"/>
</svg>
