<svg width="34" height="23" viewBox="0 0 34 23" fill="none" xmlns="http://www.w3.org/2000/svg">
<path d="M31.875 0H2.125C1.56141 0 1.02091 0.201934 0.622398 0.561379C0.223883 0.920823 0 1.40833 0 1.91667V21.0833C0 21.5917 0.223883 22.0792 0.622398 22.4386C1.02091 22.7981 1.56141 23 2.125 23H31.875C32.4386 23 32.9791 22.7981 33.3776 22.4386C33.7761 22.0792 34 21.5917 34 21.0833V1.91667C34 1.40833 33.7761 0.920823 33.3776 0.561379C32.9791 0.201934 32.4386 0 31.875 0ZM30.2387 21.0833H3.88875L11.3263 14.145L9.79625 12.8129L2.125 19.9717V3.37333L15.3319 15.2279C15.73 15.5849 16.2686 15.7853 16.83 15.7853C17.3914 15.7853 17.93 15.5849 18.3281 15.2279L31.875 3.07625V19.8471L24.055 12.7937L22.5569 14.145L30.2387 21.0833ZM3.51688 1.91667H30.1537L16.83 13.8671L3.51688 1.91667Z" fill="black" fill-opacity="0.93"/>
</svg>
