<svg width="101" height="91" viewBox="0 0 101 91" fill="none" xmlns="http://www.w3.org/2000/svg">
<path d="M41.3684 30.5004L43.4629 34.266H44.6713L46.7646 30.5004V35.1246H48.571V27.1116H46.7646L44.0723 31.874L41.3684 27.1116H39.562V35.1246H41.3684V30.5004Z" fill="#393A3A"/>
<path d="M56.2119 33.453H51.9656V31.9196H55.4866V30.2481H51.9656V28.7831H56.1545V27.1116H50.1362V35.1246H56.2119V33.453Z" fill="#393A3A"/>
<path d="M59.2488 35.1246H61.0667V28.7831H63.5525V27.1116H56.7642V28.7831H59.2488V35.1246Z" fill="#393A3A"/>
<path d="M69.5694 32.1479C70.0043 31.9276 70.3699 31.5927 70.6264 31.1796C70.8872 30.7667 71.0234 30.288 71.0189 29.8004C71.0265 29.4402 70.9553 29.0828 70.8102 28.7527C70.6652 28.4227 70.4497 28.128 70.1788 27.889C69.6183 27.372 68.8771 27.093 68.113 27.1115H64.335V35.1233H66.1643V32.4972H67.7297L69.2836 35.1233H71.3092L69.5694 32.1479ZM69.1103 29.9065L69.1034 29.9716C69.1004 29.9913 69.0962 30.0107 69.0908 30.0299C69.0908 30.0538 69.0816 30.0778 69.0736 30.1018C69.0564 30.1641 69.0329 30.2245 69.0036 30.2822C68.9726 30.3407 68.9361 30.3962 68.8946 30.4477C68.8741 30.4737 68.8523 30.4984 68.8291 30.522C68.7354 30.6175 68.6227 30.6927 68.4983 30.7429C68.3738 30.793 68.2403 30.8169 68.1061 30.8131H66.1551V28.783H68.1061C68.2403 28.7793 68.3738 28.8032 68.4983 28.8533C68.6227 28.9034 68.7354 28.9786 68.8291 29.0742C68.8523 29.0977 68.8741 29.1225 68.8946 29.1484C68.9361 29.2 68.9726 29.2554 69.0036 29.314C69.0333 29.3714 69.0568 29.4319 69.0736 29.4944C69.0805 29.5183 69.0862 29.5423 69.0908 29.5663C69.095 29.5828 69.0981 29.5996 69.1 29.6165C69.1 29.6165 69.1 29.6234 69.1 29.6257L69.1069 29.693C69.1069 29.7273 69.1069 29.7627 69.1069 29.7992C69.1069 29.8358 69.1172 29.8734 69.1149 29.9065H69.1103Z" fill="#393A3A"/>
<path d="M78.8782 28.1552C78.0626 27.3605 77.0576 26.9631 75.8633 26.9631C74.669 26.9631 73.664 27.3605 72.8484 28.1552C72.0428 28.9399 71.6403 29.9295 71.6411 31.1238C71.6419 32.3181 72.0443 33.3076 72.8484 34.0924C73.6617 34.8871 74.6667 35.2844 75.8633 35.2844C77.0599 35.2844 78.0649 34.8871 78.8782 34.0924C79.6915 33.3076 80.0981 32.3181 80.0981 31.1238C80.0981 29.9295 79.6915 28.9399 78.8782 28.1552ZM77.5331 32.8467C77.3176 33.0691 77.0583 33.2447 76.7713 33.3626C76.4843 33.4805 76.176 33.5381 75.8656 33.5318C75.5566 33.5388 75.2496 33.4815 74.9642 33.3635C74.6788 33.2455 74.4214 33.0695 74.2084 32.8467C73.9882 32.6165 73.8159 32.3453 73.7013 32.0486C73.5866 31.752 73.532 31.4358 73.5405 31.1181C73.5405 30.4224 73.7631 29.8515 74.2084 29.4054C74.4246 29.1839 74.6833 29.0078 74.9691 28.8875C75.2549 28.7672 75.5621 28.7053 75.8725 28.7053C76.1828 28.7053 76.49 28.7672 76.7759 28.8875C77.0617 29.0078 77.3204 29.1839 77.5366 29.4054C77.9819 29.853 78.2045 30.4239 78.2045 31.1181C78.2125 31.436 78.1573 31.7524 78.0421 32.049C77.9269 32.3457 77.7539 32.6168 77.5331 32.8467Z" fill="#393A3A"/>
<path d="M12.6715 56.8973H10.7871L8.4229 54.0771V56.8973H6.92407V50.3366H8.4229V52.989L10.5988 50.3366H12.4833L11.6914 51.3048L9.8632 53.5427L12.6715 56.8973Z" fill="#393A3A"/>
<path d="M17.4672 54.463C17.8238 54.28 18.1234 54.0036 18.3337 53.6637C18.546 53.3253 18.6567 52.9335 18.6527 52.5345C18.659 52.2395 18.6006 51.9467 18.4817 51.6764C18.3628 51.4061 18.1862 51.1647 17.9642 50.9691C17.5048 50.5433 16.8956 50.3141 16.2679 50.3309H13.1785V56.8938H14.6761V54.7416H15.9581L17.2285 56.8984H18.888L17.4672 54.463ZM16.8624 53.1362C16.7852 53.2143 16.6927 53.2758 16.5907 53.3169C16.4886 53.3579 16.3791 53.3777 16.2691 53.3749H14.6773V51.7044H16.2691C16.3791 51.7016 16.4886 51.7214 16.5907 51.7624C16.6927 51.8035 16.7852 51.865 16.8624 51.9431C17.0148 52.1049 17.0996 52.3184 17.0996 52.5402C17.0996 52.762 17.0148 52.9755 16.8624 53.1374V53.1362Z" fill="#393A3A"/>
<path d="M23.1461 50.3366H21.9123L20.472 53.7357L19.1316 56.8996H20.697L21.0642 56.0021L21.1469 55.7898H23.9081L24.3603 56.8996H25.9165L23.1461 50.3366ZM23.3641 54.463H21.7069L22.5344 52.45L23.3641 54.463Z" fill="#393A3A"/>
<path d="M29.4305 55.4779C29.2219 55.5989 28.9833 55.659 28.7419 55.6514C28.4782 55.658 28.2176 55.5933 27.9879 55.4642C27.8927 55.4154 27.8085 55.3478 27.7405 55.2655C27.6724 55.1833 27.6219 55.0881 27.592 54.9858L26.0955 55.342C26.2406 55.8442 26.5678 56.2749 27.0136 56.5511C27.5288 56.8718 28.1275 57.0346 28.735 57.0193C29.4634 57.0193 30.0567 56.829 30.515 56.4484C30.7401 56.2635 30.9193 56.0295 31.0387 55.7645C31.1581 55.4996 31.2145 55.2108 31.2036 54.9207C31.1723 54.1839 30.8708 53.6651 30.2993 53.3644C29.9884 53.1859 29.656 53.0474 29.31 52.9523C28.7829 52.7962 28.4531 52.6931 28.3207 52.6428C27.9566 52.4906 27.7745 52.3155 27.7745 52.1176C27.7756 52.0393 27.7974 51.9626 27.8377 51.8953C27.878 51.828 27.9353 51.7723 28.004 51.734C28.1734 51.629 28.3704 51.577 28.5698 51.5844C28.7709 51.5784 28.9697 51.6287 29.1436 51.7294C29.2884 51.8097 29.3968 51.942 29.4466 52.0993L30.9259 51.7568C30.7912 51.3013 30.4925 50.9111 30.087 50.6607C29.6288 50.3615 29.0901 50.2078 28.5422 50.22C27.8697 50.22 27.3234 50.4072 26.9034 50.7817C26.6988 50.9634 26.5369 51.1878 26.4294 51.4388C26.3219 51.6898 26.2713 51.9614 26.2814 52.2341C26.2795 52.5707 26.3708 52.9013 26.5453 53.1897C26.6333 53.3336 26.8563 53.5334 27.2144 53.7892C27.2909 53.8333 27.4416 53.9053 27.6666 54.005L28.1256 54.174C28.1379 54.18 28.3043 54.2299 28.6249 54.3235L28.719 54.3521C29.1207 54.483 29.3938 54.6109 29.5384 54.7357C29.5892 54.7724 29.631 54.8202 29.6604 54.8754C29.6899 54.9306 29.7062 54.9918 29.7082 55.0543C29.704 55.1431 29.676 55.2291 29.6272 55.3036C29.5784 55.378 29.5105 55.4382 29.4305 55.4779Z" fill="#393A3A"/>
<path d="M33.2741 50.3377H31.9463V56.8984H33.3877V52.8964L36.5243 56.8984H37.8532V50.3377H36.4118V54.3579L33.2741 50.3377Z" fill="#393A3A"/>
<path d="M44.5324 51.1883C43.8638 50.5645 42.9816 50.2173 42.0649 50.2173C41.1483 50.2173 40.2661 50.5645 39.5975 51.1883C39.2742 51.5035 39.0197 51.8816 38.8499 52.2991C38.68 52.7165 38.5986 53.1644 38.6105 53.6146C38.6105 54.5919 38.9422 55.4003 39.5975 56.0431C40.2655 56.6682 41.1479 57.0162 42.0649 57.0162C42.982 57.0162 43.8644 56.6682 44.5324 56.0431C45.198 55.4007 45.5305 54.5912 45.5297 53.6146C45.5289 52.638 45.1965 51.8292 44.5324 51.1883ZM43.4283 55.0338C43.3389 55.1254 43.2409 55.2084 43.1357 55.2816C43.1008 55.3063 43.0644 55.3288 43.0267 55.3489C43.0215 55.3529 43.0157 55.356 43.0095 55.3581C42.9877 55.3717 42.9651 55.3839 42.9417 55.3946C42.9113 55.411 42.8799 55.4255 42.8476 55.438C42.8212 55.4519 42.7935 55.4633 42.765 55.4722L42.6502 55.5133C42.6261 55.5202 42.602 55.5282 42.5779 55.5327C42.5647 55.5384 42.5508 55.5426 42.5366 55.5453L42.4838 55.5579C42.4407 55.5676 42.397 55.5749 42.353 55.5796C42.322 55.5796 42.2876 55.5887 42.2543 55.5921H42.2176C42.1671 55.5921 42.1154 55.5921 42.0649 55.5921H42.0581C42.0076 55.5921 41.9559 55.5921 41.9077 55.5853H41.8813C41.8594 55.5842 41.8376 55.5819 41.8159 55.5784C41.8045 55.5797 41.7929 55.5797 41.7815 55.5784C41.7645 55.5775 41.7476 55.5752 41.731 55.5716C41.6923 55.566 41.6539 55.558 41.6162 55.5476C41.59 55.5435 41.5643 55.537 41.5393 55.5282C41.5336 55.5293 41.5278 55.5293 41.5221 55.5282C41.5054 55.5258 41.4891 55.5208 41.4739 55.5133C41.469 55.5148 41.4639 55.5148 41.459 55.5133C41.4433 55.5087 41.428 55.503 41.4131 55.4962C41.3787 55.4836 41.3454 55.4722 41.3109 55.4574C41.2765 55.4425 41.2145 55.4117 41.1686 55.3877C41.1528 55.3791 41.1375 55.3696 41.1227 55.3592C41.1077 55.3521 41.0931 55.3441 41.0791 55.3352C41.064 55.3257 41.0495 55.3154 41.0355 55.3044L40.985 55.2736C40.9678 55.261 40.9506 55.2496 40.9368 55.237C40.8857 55.2037 40.838 55.1655 40.7945 55.1228C40.7647 55.0999 40.737 55.0743 40.7119 55.0463C40.6484 54.9807 40.5908 54.9096 40.5397 54.834C40.5143 54.8065 40.4916 54.7767 40.472 54.7449C40.4032 54.6376 40.3474 54.5226 40.3056 54.4024C40.2792 54.3445 40.2588 54.284 40.2448 54.222C40.228 54.1666 40.215 54.1101 40.2058 54.053C40.2058 54.0313 40.1989 54.0096 40.1966 53.9902C40.1874 53.94 40.1817 53.8886 40.1771 53.8361C40.1703 53.7681 40.1673 53.6999 40.1679 53.6317C40.1673 53.5627 40.1703 53.4937 40.1771 53.425C40.1771 53.3668 40.1862 53.3108 40.1966 53.2595C40.1966 53.2423 40.2035 53.2229 40.2058 53.2069C40.2149 53.1487 40.2299 53.0928 40.2448 53.038C40.2787 52.9175 40.324 52.8005 40.3802 52.6886C40.407 52.6383 40.436 52.5877 40.4674 52.5367C40.4674 52.5367 40.4743 52.5299 40.48 52.5242C40.4858 52.5184 40.5041 52.483 40.5191 52.4636C40.5379 52.4339 40.559 52.4057 40.5822 52.3791C40.5891 52.3723 40.5948 52.362 40.6017 52.3552C40.6361 52.3141 40.6717 52.273 40.7084 52.2353C40.7371 52.2067 40.7647 52.1793 40.7934 52.1531C40.8339 52.1143 40.8768 52.078 40.9219 52.0446C40.9646 52.0084 41.0107 51.9762 41.0596 51.9487C41.0906 51.927 41.1227 51.9076 41.156 51.8882C41.1893 51.8688 41.2547 51.8357 41.3086 51.8117L41.3396 51.7991C41.3857 51.7788 41.4333 51.762 41.4819 51.7489H41.4969H41.506C41.6868 51.6959 41.8742 51.669 42.0626 51.669C42.1255 51.6684 42.1884 51.6715 42.2509 51.6781C42.2622 51.6757 42.2739 51.6757 42.2853 51.6781C42.3438 51.6849 42.4001 51.6929 42.4574 51.7044C42.5148 51.7158 42.5493 51.7238 42.5952 51.7352L42.617 51.742C42.648 51.7512 42.6778 51.7614 42.7065 51.7729C42.7535 51.7872 42.7996 51.8048 42.8442 51.8254C42.8951 51.8445 42.9439 51.8686 42.99 51.8973C43.0302 51.9162 43.0686 51.9387 43.1047 51.9647L43.1139 51.9715C43.1357 51.9864 43.1575 52.0001 43.1793 52.0172C43.2011 52.0343 43.2183 52.0458 43.2344 52.0606C43.2588 52.0787 43.2822 52.0981 43.3044 52.1188L43.3113 52.1257C43.352 52.1612 43.3903 52.1994 43.4261 52.2399C43.6076 52.425 43.7496 52.6448 43.8437 52.8859C43.9378 53.127 43.9819 53.3846 43.9735 53.6431C43.9832 54.16 43.7873 54.6599 43.4283 55.0338Z" fill="#393A3A"/>
<path d="M51.446 51.2854C51.1193 50.9738 50.734 50.7295 50.3121 50.5667C49.8902 50.4039 49.4401 50.3257 48.9877 50.3366H46.2747V56.8995H48.9877C49.4404 56.9106 49.8908 56.8321 50.3128 56.6686C50.7348 56.5052 51.1199 56.26 51.446 55.9473C51.7612 55.6451 52.012 55.2828 52.1832 54.882C52.3545 54.4812 52.4428 54.0501 52.4428 53.6146C52.4428 53.1791 52.3545 52.7481 52.1832 52.3473C52.012 51.9465 51.7612 51.5842 51.446 51.282V51.2854ZM50.7574 54.3682C50.6662 54.5976 50.5269 54.8051 50.3488 54.9768C50.2588 55.0664 50.1609 55.1478 50.0562 55.22C49.9543 55.289 49.8455 55.3472 49.7314 55.3935C49.496 55.4869 49.2445 55.5334 48.9911 55.5305H47.7723V51.7056H48.9866C49.1141 51.7052 49.2413 51.7175 49.3664 51.7421C49.4883 51.7643 49.6076 51.7991 49.7222 51.846C49.8339 51.8935 49.9408 51.9516 50.0412 52.0196C50.1459 52.0909 50.2439 52.1715 50.3339 52.2605C50.38 52.3045 50.4237 52.351 50.4647 52.3998C50.5059 52.4473 50.5442 52.4973 50.5795 52.5493C50.6471 52.6525 50.7055 52.7614 50.7539 52.8748C50.821 53.0411 50.8643 53.216 50.8825 53.3943C50.8904 53.4671 50.8946 53.5403 50.8951 53.6135C50.8973 53.871 50.8493 54.1265 50.7539 54.3659L50.7574 54.3682Z" fill="#393A3A"/>
<path d="M56.4953 50.3366H55.2616L52.4832 56.8996H54.044L54.503 55.7898H57.2574L57.7165 56.8996H59.2681L56.4953 50.3366ZM56.7111 54.463H55.0527L55.8825 52.45L56.7111 54.463Z" fill="#393A3A"/>
<path d="M64.0595 54.4629C64.416 54.2798 64.7156 54.0035 64.926 53.6636C65.1401 53.3258 65.2517 52.9337 65.2473 52.5344C65.2534 52.2394 65.195 51.9466 65.0761 51.6763C64.9572 51.4061 64.7806 51.1647 64.5587 50.969C64.0995 50.5444 63.4915 50.3153 62.8648 50.3308H59.7742V56.8937H61.2718V54.7414H62.5515L63.8242 56.8983H65.4826L64.0595 54.4629ZM63.457 53.1361C63.4183 53.1746 63.376 53.2094 63.3307 53.24C63.2862 53.2685 63.2393 53.2933 63.1907 53.3142C63.161 53.3263 63.1302 53.3358 63.0989 53.3428C63.0506 53.3564 63.001 53.3652 62.9509 53.369C62.9222 53.369 62.8923 53.369 62.8636 53.369H61.2718V51.7043H62.8636C62.8927 51.7019 62.9218 51.7019 62.9509 51.7043C63.006 51.7072 63.0604 51.7175 63.1127 51.7351C63.1382 51.7418 63.1632 51.7506 63.1873 51.7614C63.2114 51.7705 63.2355 51.7808 63.2596 51.7922C63.2893 51.8074 63.3177 51.825 63.3445 51.8448C63.3576 51.8522 63.3692 51.8618 63.3789 51.8733C63.3789 51.8733 63.3789 51.8733 63.3858 51.8733C63.3947 51.8777 63.4022 51.8844 63.4076 51.8927C63.4226 51.9026 63.4364 51.9141 63.4489 51.927C63.5999 52.0891 63.6838 52.3019 63.6838 52.523C63.6838 52.744 63.5999 52.9569 63.4489 53.119L63.457 53.1361Z" fill="#393A3A"/>
<path d="M96.1712 41.6191C96.0756 40.4978 95.9394 39.3888 95.7626 38.2919L95.7317 38.0373H95.719C92.1338 16.4862 73.2974 0 50.6635 0C32.1038 0 16.0918 11.089 8.95576 26.9632H18.4514C24.8931 15.8879 36.9216 8.42635 50.6635 8.42635C68.6139 8.42635 83.6355 21.1595 87.1105 38.0373H27.0094V34.1849H36.2043V30.5746H10.1757C9.19681 30.6631 8.23293 30.8733 7.30659 31.2003C6.66171 31.4203 6.0367 31.6942 5.43822 32.019C3.46656 33.09 1.42145 34.9534 0.530876 38.1846C-0.263296 41.0539 -0.165746 43.1217 0.818936 44.3354C1.08381 44.6575 1.41615 44.9183 1.79275 45.0995C2.16936 45.2808 2.58117 45.3781 2.99947 45.3847C3.03619 45.3847 3.05455 45.3847 3.06029 45.3847H96.3365C96.3342 44.115 96.2791 42.8598 96.1712 41.6191ZM6.19566 38.0373H1.33079C1.76964 36.5814 2.56642 35.2574 3.64903 34.1849H6.20484L6.19566 38.0373ZM17.5688 38.0373H6.92557V34.1849H17.5723L17.5688 38.0373ZM26.2795 38.0373H18.2988V34.1849H26.2841L26.2795 38.0373Z" fill="#2B4C99"/>
<path d="M99.6549 60.5704C98.8516 57.6863 97.1427 55.8891 95.3788 54.7781C93.7521 53.7685 91.9126 53.1471 90.0043 52.9627H67.6631V56.5742H73.1718V60.4265H7.51147C8.39925 62.9677 9.51305 65.425 10.8397 67.7693C18.6792 81.6237 33.5918 91 50.6619 91C66.1482 91 79.8591 83.2816 88.1199 71.4995H77.1553C73.7029 75.0079 69.5809 77.7949 65.0312 79.6967C60.4815 81.5986 55.5957 82.5771 50.6607 82.5748C38.5255 82.5748 27.7284 76.7517 20.9367 67.7693H97.1255C97.1255 67.7693 97.1496 67.7693 97.1863 67.7693C97.6046 67.7627 98.0164 67.6654 98.393 67.4842C98.7696 67.303 99.102 67.0422 99.3669 66.72C100.352 65.5075 100.448 63.4397 99.6549 60.5704ZM81.8813 60.4254H73.896V56.5742H81.8813V60.4254ZM93.2545 60.4254H82.6078V56.5742H93.2556L93.2545 60.4254ZM93.9809 60.4254V56.5742H96.5368C97.6194 57.6466 98.4161 58.9706 98.855 60.4265L93.9809 60.4254Z" fill="#E42829"/>
</svg>
