<svg width="276" height="272" viewBox="0 0 276 272" fill="none" xmlns="http://www.w3.org/2000/svg">
<rect width="276" height="272" rx="10" fill="#ECECEC"/>
<g clip-path="url(#clip0)">
<path d="M121.391 115.344C121.391 118.551 120.117 121.627 117.849 123.895C115.581 126.163 112.505 127.438 109.297 127.438C106.09 127.438 103.014 126.163 100.746 123.895C98.4779 121.627 97.2037 118.551 97.2037 115.344C97.2037 112.136 98.4779 109.06 100.746 106.792C103.014 104.524 106.09 103.25 109.297 103.25C112.505 103.25 115.581 104.524 117.849 106.792C120.117 109.06 121.391 112.136 121.391 115.344Z" fill="#949494"/>
<path d="M89.1412 79.0625C84.8646 79.0625 80.7632 80.7614 77.7391 83.7854C74.7151 86.8094 73.0162 90.9109 73.0162 95.1875V175.812C73.0162 180.089 74.7151 184.191 77.7391 187.215C80.7632 190.239 84.8646 191.938 89.1412 191.938H185.891C190.168 191.938 194.269 190.239 197.293 187.215C200.317 184.191 202.016 180.089 202.016 175.812V95.1875C202.016 90.9109 200.317 86.8094 197.293 83.7854C194.269 80.7614 190.168 79.0625 185.891 79.0625H89.1412ZM185.891 87.125C188.03 87.125 190.08 87.9744 191.592 89.4865C193.104 90.9985 193.954 93.0492 193.954 95.1875V147.594L163.502 131.896C162.746 131.517 161.89 131.386 161.055 131.52C160.22 131.655 159.448 132.049 158.85 132.646L128.938 162.558L107.491 148.271C106.717 147.755 105.788 147.524 104.863 147.615C103.937 147.706 103.071 148.114 102.412 148.771L81.0787 167.75V95.1875C81.0787 93.0492 81.9282 90.9985 83.4402 89.4865C84.9522 87.9744 87.0029 87.125 89.1412 87.125H185.891Z" fill="#949494"/>
</g>
<defs>
<clipPath id="clip0">
<rect width="129" height="129" fill="white" transform="translate(73 71)"/>
</clipPath>
</defs>
</svg>
