<svg width="87" height="87" viewBox="0 0 87 87" fill="none" xmlns="http://www.w3.org/2000/svg">
<path d="M38.7422 28.188C38.122 27.83 37.4186 27.6415 36.7025 27.6416C35.9864 27.6417 35.283 27.8304 34.6629 28.1887C34.0429 28.5469 33.5281 29.0621 33.1704 29.6824C32.8126 30.3027 32.6245 31.0063 32.625 31.7224V55.2831C32.6245 55.9991 32.8126 56.7027 33.1704 57.323C33.5281 57.9434 34.0429 58.4585 34.6629 58.8168C35.283 59.175 35.9864 59.3637 36.7025 59.3638C37.4186 59.3639 38.122 59.1755 38.7422 58.8174L61.1719 45.8544C61.5851 45.6158 61.9283 45.2726 62.1669 44.8593C62.4055 44.446 62.5311 43.9772 62.5311 43.5C62.5311 43.0228 62.4055 42.554 62.1669 42.1407C61.9283 41.7274 61.5851 41.3842 61.1719 41.1456L38.7422 28.188ZM0 43.5C0 31.9631 4.58302 20.8987 12.7409 12.7409C20.8987 4.58302 31.9631 0 43.5 0C55.0369 0 66.1013 4.58302 74.2591 12.7409C82.417 20.8987 87 31.9631 87 43.5C87 55.0369 82.417 66.1013 74.2591 74.2591C66.1013 82.417 55.0369 87 43.5 87C31.9631 87 20.8987 82.417 12.7409 74.2591C4.58302 66.1013 0 55.0369 0 43.5ZM43.5 5.4375C38.5016 5.4375 33.5521 6.42202 28.9341 8.33484C24.3162 10.2477 20.1202 13.0513 16.5857 16.5857C13.0513 20.1202 10.2477 24.3162 8.33483 28.9341C6.42201 33.5521 5.4375 38.5016 5.4375 43.5C5.4375 48.4984 6.42201 53.4479 8.33483 58.0659C10.2477 62.6838 13.0513 66.8798 16.5857 70.4143C20.1202 73.9487 24.3162 76.7523 28.9341 78.6652C33.5521 80.578 38.5016 81.5625 43.5 81.5625C53.5948 81.5625 63.2761 77.5524 70.4143 70.4143C77.5524 63.2761 81.5625 53.5948 81.5625 43.5C81.5625 33.4052 77.5524 23.7239 70.4143 16.5857C63.2761 9.44764 53.5948 5.4375 43.5 5.4375Z" fill="white"/>
</svg>
